<mxfile host="app.diagrams.net" modified="2023-09-04T18:50:39.964Z" agent="Mozilla/5.0 (Windows NT 10.0; Win64; x64) AppleWebKit/537.36 (KHTML, like Gecko) Chrome/116.0.0.0 Safari/537.36 Edg/116.0.1938.69" etag="d7q9RbCD2c3A-VmRkbLD" version="21.7.2" type="github">
  <diagram name="Page-1" id="Ea8LnX7UJkmHnf4LcZ5x">
    <mxGraphModel dx="1556" dy="871" grid="1" gridSize="10" guides="1" tooltips="1" connect="1" arrows="1" fold="1" page="1" pageScale="1" pageWidth="850" pageHeight="1100" math="0" shadow="0">
      <root>
        <mxCell id="0" />
        <mxCell id="1" parent="0" />
        <mxCell id="EdCSI6xdJkQoaeJ814kS-14" value="" style="edgeStyle=orthogonalEdgeStyle;rounded=0;orthogonalLoop=1;jettySize=auto;html=1;" edge="1" parent="1" source="EdCSI6xdJkQoaeJ814kS-2" target="EdCSI6xdJkQoaeJ814kS-3">
          <mxGeometry relative="1" as="geometry" />
        </mxCell>
        <mxCell id="EdCSI6xdJkQoaeJ814kS-2" value="&lt;font style=&quot;font-size: 15px;&quot;&gt;Início&lt;/font&gt;" style="rounded=1;whiteSpace=wrap;html=1;" vertex="1" parent="1">
          <mxGeometry x="50" y="30" width="170" height="60" as="geometry" />
        </mxCell>
        <mxCell id="EdCSI6xdJkQoaeJ814kS-15" value="" style="edgeStyle=orthogonalEdgeStyle;rounded=0;orthogonalLoop=1;jettySize=auto;html=1;" edge="1" parent="1" source="EdCSI6xdJkQoaeJ814kS-3" target="EdCSI6xdJkQoaeJ814kS-4">
          <mxGeometry relative="1" as="geometry" />
        </mxCell>
        <mxCell id="EdCSI6xdJkQoaeJ814kS-3" value="&lt;font style=&quot;font-size: 15px;&quot;&gt;Colaborador sofre um acidente no trabalho&lt;/font&gt;" style="rounded=0;whiteSpace=wrap;html=1;" vertex="1" parent="1">
          <mxGeometry x="50" y="140" width="170" height="70" as="geometry" />
        </mxCell>
        <mxCell id="EdCSI6xdJkQoaeJ814kS-18" value="" style="edgeStyle=orthogonalEdgeStyle;rounded=0;orthogonalLoop=1;jettySize=auto;html=1;" edge="1" parent="1" source="EdCSI6xdJkQoaeJ814kS-4" target="EdCSI6xdJkQoaeJ814kS-6">
          <mxGeometry relative="1" as="geometry" />
        </mxCell>
        <mxCell id="EdCSI6xdJkQoaeJ814kS-4" value="&lt;font style=&quot;font-size: 15px;&quot;&gt;Encarregado do setor de produção comunica a chefia do colaborador&lt;/font&gt;" style="rounded=0;whiteSpace=wrap;html=1;" vertex="1" parent="1">
          <mxGeometry x="40" y="250" width="190" height="80" as="geometry" />
        </mxCell>
        <mxCell id="EdCSI6xdJkQoaeJ814kS-19" value="" style="edgeStyle=orthogonalEdgeStyle;rounded=0;orthogonalLoop=1;jettySize=auto;html=1;" edge="1" parent="1" source="EdCSI6xdJkQoaeJ814kS-6" target="EdCSI6xdJkQoaeJ814kS-7">
          <mxGeometry relative="1" as="geometry" />
        </mxCell>
        <mxCell id="EdCSI6xdJkQoaeJ814kS-6" value="&lt;font style=&quot;font-size: 15px;&quot;&gt;Encarregado do setor de produção requisita um plantonista do posto médico&lt;/font&gt;" style="rounded=0;whiteSpace=wrap;html=1;" vertex="1" parent="1">
          <mxGeometry x="40" y="370" width="190" height="80" as="geometry" />
        </mxCell>
        <mxCell id="EdCSI6xdJkQoaeJ814kS-20" value="" style="edgeStyle=orthogonalEdgeStyle;rounded=0;orthogonalLoop=1;jettySize=auto;html=1;" edge="1" parent="1" source="EdCSI6xdJkQoaeJ814kS-7" target="EdCSI6xdJkQoaeJ814kS-8">
          <mxGeometry relative="1" as="geometry" />
        </mxCell>
        <mxCell id="EdCSI6xdJkQoaeJ814kS-7" value="&lt;font style=&quot;font-size: 15px;&quot;&gt;Plantonista chega ao local do acidente e avalia o colaborador&lt;/font&gt;" style="rounded=0;whiteSpace=wrap;html=1;" vertex="1" parent="1">
          <mxGeometry x="40" y="490" width="190" height="70" as="geometry" />
        </mxCell>
        <mxCell id="EdCSI6xdJkQoaeJ814kS-21" value="" style="edgeStyle=orthogonalEdgeStyle;rounded=0;orthogonalLoop=1;jettySize=auto;html=1;" edge="1" parent="1" source="EdCSI6xdJkQoaeJ814kS-8" target="EdCSI6xdJkQoaeJ814kS-10">
          <mxGeometry relative="1" as="geometry" />
        </mxCell>
        <mxCell id="EdCSI6xdJkQoaeJ814kS-23" value="" style="edgeStyle=orthogonalEdgeStyle;rounded=0;orthogonalLoop=1;jettySize=auto;html=1;" edge="1" parent="1" source="EdCSI6xdJkQoaeJ814kS-8" target="EdCSI6xdJkQoaeJ814kS-9">
          <mxGeometry relative="1" as="geometry" />
        </mxCell>
        <mxCell id="EdCSI6xdJkQoaeJ814kS-8" value="&lt;font style=&quot;font-size: 15px;&quot;&gt;Plantonista consegue tratar o colaborador no local do acidente?&lt;br&gt;&lt;/font&gt;" style="rhombus;whiteSpace=wrap;html=1;" vertex="1" parent="1">
          <mxGeometry x="290" y="455" width="250" height="140" as="geometry" />
        </mxCell>
        <mxCell id="EdCSI6xdJkQoaeJ814kS-24" style="edgeStyle=orthogonalEdgeStyle;rounded=0;orthogonalLoop=1;jettySize=auto;html=1;exitX=0.5;exitY=0;exitDx=0;exitDy=0;entryX=1;entryY=0.5;entryDx=0;entryDy=0;" edge="1" parent="1" source="EdCSI6xdJkQoaeJ814kS-9" target="EdCSI6xdJkQoaeJ814kS-12">
          <mxGeometry relative="1" as="geometry" />
        </mxCell>
        <mxCell id="EdCSI6xdJkQoaeJ814kS-9" value="&lt;font style=&quot;font-size: 15px;&quot;&gt;SAMU é acionado e leva o ferido ao pronto-socorro&lt;/font&gt;" style="rounded=0;whiteSpace=wrap;html=1;" vertex="1" parent="1">
          <mxGeometry x="590" y="490" width="190" height="70" as="geometry" />
        </mxCell>
        <mxCell id="EdCSI6xdJkQoaeJ814kS-22" value="" style="edgeStyle=orthogonalEdgeStyle;rounded=0;orthogonalLoop=1;jettySize=auto;html=1;" edge="1" parent="1" source="EdCSI6xdJkQoaeJ814kS-10" target="EdCSI6xdJkQoaeJ814kS-12">
          <mxGeometry relative="1" as="geometry" />
        </mxCell>
        <mxCell id="EdCSI6xdJkQoaeJ814kS-10" value="&lt;font style=&quot;font-size: 15px;&quot;&gt;Colaborador é levado ao posto médico para a realização de exames e aplicação de medicamentos&lt;/font&gt;" style="rounded=0;whiteSpace=wrap;html=1;" vertex="1" parent="1">
          <mxGeometry x="315" y="310" width="200" height="90" as="geometry" />
        </mxCell>
        <mxCell id="EdCSI6xdJkQoaeJ814kS-26" value="" style="edgeStyle=orthogonalEdgeStyle;rounded=0;orthogonalLoop=1;jettySize=auto;html=1;" edge="1" parent="1" source="EdCSI6xdJkQoaeJ814kS-12" target="EdCSI6xdJkQoaeJ814kS-25">
          <mxGeometry relative="1" as="geometry" />
        </mxCell>
        <mxCell id="EdCSI6xdJkQoaeJ814kS-12" value="&lt;font style=&quot;font-size: 15px;&quot;&gt;Plantonista preenche o CAT e o entrega ao SESMT&lt;/font&gt;" style="rounded=0;whiteSpace=wrap;html=1;" vertex="1" parent="1">
          <mxGeometry x="315" y="150" width="200" height="70" as="geometry" />
        </mxCell>
        <mxCell id="EdCSI6xdJkQoaeJ814kS-25" value="&lt;font style=&quot;font-size: 15px;&quot;&gt;Fim&lt;/font&gt;" style="rounded=1;whiteSpace=wrap;html=1;" vertex="1" parent="1">
          <mxGeometry x="330" y="30" width="170" height="60" as="geometry" />
        </mxCell>
        <mxCell id="EdCSI6xdJkQoaeJ814kS-27" value="&lt;font style=&quot;font-size: 14px;&quot;&gt;SIM&lt;/font&gt;" style="text;html=1;strokeColor=none;fillColor=none;align=center;verticalAlign=middle;whiteSpace=wrap;rounded=0;" vertex="1" parent="1">
          <mxGeometry x="360" y="420" width="60" height="30" as="geometry" />
        </mxCell>
        <mxCell id="EdCSI6xdJkQoaeJ814kS-28" value="&lt;span style=&quot;font-size: 14px;&quot;&gt;NÃO&lt;/span&gt;" style="text;html=1;strokeColor=none;fillColor=none;align=center;verticalAlign=middle;whiteSpace=wrap;rounded=0;" vertex="1" parent="1">
          <mxGeometry x="530" y="530" width="60" height="30" as="geometry" />
        </mxCell>
      </root>
    </mxGraphModel>
  </diagram>
</mxfile>
